# xmcd
#
# Track frame offsets:
#	150
#	4800
#	25431
#	45073
#	64992
#	83212
#	103766
#	122258
#	142537
#	161451
#	180834
#	196988
#	211770
#
# Disc length: 3085 seconds
#
# Revision: 0
# Processed by: cddbd v1.5.2PL0 Copyright (c) Steve Scherf et al.
# Submitted via: EasyCDDAExtractor 10.0.2.1
#
DISCID=940c0b0d
DTITLE=추가열 - 할말이 너무 많아요 (SM-2007)
DYEAR=2007
DGENRE=Pop
TTITLE0=나 같은 건 없는 건가요 (Prologue)
TTITLE1=위로
TTITLE2=할말이 너무 많아요.
TTITLE3=남편에게
TTITLE4=아내에게 바치는 노래
TTITLE5=고백
TTITLE6=좋은 님께
TTITLE7=슬픈 사랑
TTITLE8=아내라는 이름으로
TTITLE9=나의 천사
TTITLE10=행복 찾기
TTITLE11=I Love Hoya
TTITLE12=할말이 너무 많아요 (Instrumental)
EXTD=
EXTT0=
EXTT1=
EXTT2=
EXTT3=
EXTT4=
EXTT5=
EXTT6=
EXTT7=
EXTT8=
EXTT9=
EXTT10=
EXTT11=
EXTT12=
PLAYORDER=
